<svg xmlns="http://www.w3.org/2000/svg" xml:space="preserve" width="30%" height="30%" version="1.1" style="shape-rendering:geometricPrecision; text-rendering:geometricPrecision; image-rendering:optimizeQuality; fill-rule:evenodd; clip-rule:evenodd"
viewBox="0 0 3907.01 3015.14"
xmlns:xlink="http://www.w3.org/1999/xlink"
xmlns:xodm="http://www.corel.com/coreldraw/odm/2003">
 <defs>
  <style type="text/css">
   <![CDATA[
    .fil0 {fill:#FFD700}
   ]]>
  </style>
 </defs>
 <g id="Capa_x0020_1">
  <metadata id="CorelCorpID_0Corel-Layer"/>
  <g id="_3088976689184">
   <path class="fil0" d="M2077.06 1727.66c103.07,-2.04 365.39,14.25 464.65,69.47 49.15,27.34 101.21,63.52 147.28,122.85 46.76,59.33 134.71,207.31 263.84,443.23l360.17 651.94 594 0 -300.14 -584.93c-120.76,-234.53 -215.68,-397.16 -285.48,-487.9 -69.1,-90.74 -157.75,-174.5 -263.85,-250.58 207.31,-37 367.15,-127.04 479.53,-270.13 112.38,-143.09 168.92,-332.25 168.92,-566.78 0,-184.97 -37,-344.12 -110.29,-477.43 -73.99,-132.62 -167.46,-226.29 -281.99,-279.9 -115.1,-53.87 -312.74,-90.22 -580.06,-87.09 -506.11,5.92 -2616.41,-33.51 -2733.64,11.34 32.3,140.98 213.57,435.78 543.3,480.88 381.86,30.89 743.44,9.67 1208.68,8.95 218.53,-0.34 1108.63,-6.23 1230.17,34.03 65.79,21.79 117.26,62.12 155.66,120.06 38.39,57.93 57.24,134.72 57.24,230.34 0,99.82 -18.85,180.09 -57.24,240.11 -38.39,60.03 -88.07,99.52 -149.37,119.36 -61.51,19.9 -204.51,30.02 -429.97,30.02l-351.62 0c-564.76,-5.55 -1044.04,6.29 -1635.83,4.71 37.34,157.08 245.55,396.22 372.21,424.25 180.14,39.88 535.48,18.62 1133.84,13.2z"/>
   <path class="fil0" d="M1160.03 880.23c-25.51,-55.69 -126.81,-83.06 -184.99,-303.98l-727.74 -2.07c6.6,67.91 107.07,179.77 137.38,206.4 148.81,130.75 296.91,99.03 497.07,99.01 96.79,-0 182.09,3.28 278.28,0.64z"/>
   <path class="fil0" d="M1400.18 1964c-17.26,-37.69 -85.81,-56.2 -125.18,-205.7l-492.45 -1.4c4.46,45.95 77.31,121.65 97.81,139.67 100.69,88.47 200.92,67.01 336.36,67 65.5,-0 118.36,2.22 183.46,0.43z"/>
   <path class="fil0" d="M1494.57 2385.46c-14.03,-30.63 -69.74,-45.68 -101.75,-167.19l-400.25 -1.14c3.63,37.35 65.64,98.87 82.31,113.52 81.84,71.91 163.3,54.46 273.39,54.46 53.24,-0 93.4,1.8 146.3,0.35z"/>
   <path class="fil0" d="M1570.73 2727.4c-11.42,-24.94 -56.78,-37.19 -82.84,-136.12l-325.87 -0.93c2.95,30.41 59.23,80.5 72.8,92.42 66.63,58.55 132.95,44.34 222.58,44.34 43.34,0 70.25,1.47 113.33,0.29z"/>
   <path class="fil0" d="M1231.87 1230.27c-23.03,-55.69 -114.45,-83.06 -166.96,-303.98l-656.82 -2.07c5.95,67.91 101.1,179.77 128.45,206.4 134.3,130.75 267.98,99.03 448.63,99.01 87.36,-0 159.88,3.28 246.71,0.64z"/>
   <path class="fil0" d="M1447.29 2195.41c-15.63,-37.82 -77.7,-56.39 -113.36,-206.38l-445.92 -1.41c4.04,46.11 71.42,122.05 89.99,140.13 91.18,88.76 181.93,67.23 304.58,67.22 59.31,-0 105.76,2.23 164.71,0.44z"/>
   <path class="fil0" d="M1531.74 2572.94c-12.75,-30.83 -63.35,-45.97 -92.41,-168.25l-363.54 -1.15c3.29,37.59 64,99.5 79.14,114.24 74.33,72.36 148.32,54.81 248.31,54.8 48.35,0 80.45,1.82 128.51,0.36z"/>
   <path class="fil0" d="M1601 2878.09c-10.37,-25.1 -51.57,-37.43 -75.24,-136.98l-295.98 -0.94c2.68,30.6 55.44,81.01 67.77,93.01 60.52,58.92 120.76,44.62 202.16,44.62 39.37,-0 62.16,1.48 101.28,0.29z"/>
   <path class="fil0" d="M1631.53 3014.03c-9.34,-22.6 -46.44,-33.7 -67.74,-123.34l-266.5 -0.84c2.41,27.55 51.72,72.94 62.81,83.74 54.49,53.05 108.73,40.18 182.03,40.18 35.44,-0 54.17,1.33 89.4,0.26z"/>
   <path class="fil0" d="M1904.17 879.94c2.94,-94.82 -1.66,-206.36 0.01,-307.07l-873.77 1.37c1.88,69.98 77.51,170.74 109.68,204.34 46.26,48.32 121.06,89.48 204.39,95.25 181.73,12.58 376.24,5.41 559.7,6.11z"/>
   <path class="fil0" d="M1903.71 1963.8c1.99,-64.16 -1.12,-139.64 0.01,-207.79l-591.26 0.93c1.27,47.35 52.45,115.54 74.21,138.27 31.3,32.7 81.92,60.55 138.31,64.45 122.97,8.51 254.6,3.66 378.73,4.13z"/>
   <path class="fil0" d="M1903.84 2385.29c1.62,-52.15 -0.91,-113.5 0.01,-168.89l-480.57 0.76c1.03,38.48 42.63,93.91 60.32,112.39 25.44,26.58 66.58,49.21 112.41,52.38 99.95,6.92 206.93,2.98 307.83,3.36z"/>
   <path class="fil0" d="M1903.94 2727.27c1.32,-42.46 -0.74,-92.41 0.01,-137.5l-391.27 0.61c0.84,31.33 34.71,76.46 49.11,91.5 20.72,21.64 54.21,40.07 91.52,42.65 81.38,5.63 168.48,2.42 250.62,2.74z"/>
   <path class="fil0" d="M1903.49 1229.98c2.66,-94.82 -1.5,-206.36 0.02,-307.07l-788.62 1.37c1.69,69.98 69.96,170.74 98.99,204.34 41.75,48.32 109.26,89.48 184.47,95.25 164.02,12.58 339.58,5.41 505.15,6.11z"/>
   <path class="fil0" d="M1903.26 2195.21c1.8,-64.37 -1.02,-140.1 0.01,-208.47l-535.4 0.94c1.15,47.5 47.5,115.92 67.21,138.73 28.34,32.81 74.18,60.75 125.24,64.66 111.36,8.54 230.54,3.67 342.95,4.15z"/>
   <path class="fil0" d="M1903.47 2572.78c1.47,-52.48 -0.83,-114.22 0.01,-169.96l-436.49 0.76c0.94,38.73 38.72,94.5 54.79,113.1 23.11,26.75 60.48,49.53 102.1,52.72 90.78,6.97 187.95,2.99 279.59,3.38z"/>
   <path class="fil0" d="M1903.64 2877.96c1.2,-42.73 -0.67,-92.99 0.01,-138.37l-355.37 0.62c0.77,31.53 31.53,76.94 44.61,92.08 18.81,21.78 49.24,40.32 83.13,42.92 73.91,5.67 153.02,2.44 227.63,2.75z"/>
   <path class="fil0" d="M1904.03 3013.91c1.08,-38.47 -0.61,-83.73 0.01,-124.59l-319.97 0.56c0.69,28.39 28.39,69.27 40.16,82.9 16.94,19.61 44.33,36.31 74.84,38.65 66.55,5.11 137.78,2.19 204.96,2.48z"/>
  </g>
 </g>
</svg>